<mxfile host="app.diagrams.net" modified="2024-06-02T11:46:27.580Z" agent="Mozilla/5.0 (Macintosh; Intel Mac OS X 10_15_7) AppleWebKit/605.1.15 (KHTML, like Gecko) Version/17.4.1 Safari/605.1.15" etag="3DYqPGrUOpEbf4OS1NBU" version="24.4.10" type="github">
  <diagram name="Seite-1" id="YK1ayBAXCo4zHLLxA4et">
    <mxGraphModel dx="1563" dy="656" grid="1" gridSize="10" guides="1" tooltips="1" connect="1" arrows="1" fold="1" page="1" pageScale="1" pageWidth="827" pageHeight="1169" math="0" shadow="0">
      <root>
        <mxCell id="0" />
        <mxCell id="1" parent="0" />
        <mxCell id="UbyreCae_YLPJ1FmVZYK-16" value="OutgoingMessage" style="swimlane;fontStyle=0;childLayout=stackLayout;horizontal=1;startSize=30;horizontalStack=0;resizeParent=1;resizeParentMax=0;resizeLast=0;collapsible=1;marginBottom=0;whiteSpace=wrap;html=1;" parent="1" vertex="1">
          <mxGeometry x="40" y="40" width="140" height="170" as="geometry" />
        </mxCell>
        <mxCell id="UbyreCae_YLPJ1FmVZYK-31" value="EventId" style="text;strokeColor=none;fillColor=none;align=left;verticalAlign=middle;spacingLeft=4;spacingRight=4;overflow=hidden;points=[[0,0.5],[1,0.5]];portConstraint=eastwest;rotatable=0;whiteSpace=wrap;html=1;" parent="UbyreCae_YLPJ1FmVZYK-16" vertex="1">
          <mxGeometry y="30" width="140" height="20" as="geometry" />
        </mxCell>
        <mxCell id="UbyreCae_YLPJ1FmVZYK-19" value="EventType" style="text;strokeColor=none;fillColor=none;align=left;verticalAlign=middle;spacingLeft=4;spacingRight=4;overflow=hidden;points=[[0,0.5],[1,0.5]];portConstraint=eastwest;rotatable=0;whiteSpace=wrap;html=1;" parent="UbyreCae_YLPJ1FmVZYK-16" vertex="1">
          <mxGeometry y="50" width="140" height="20" as="geometry" />
        </mxCell>
        <mxCell id="UbyreCae_YLPJ1FmVZYK-17" value="Sender" style="text;strokeColor=none;fillColor=none;align=left;verticalAlign=middle;spacingLeft=4;spacingRight=4;overflow=hidden;points=[[0,0.5],[1,0.5]];portConstraint=eastwest;rotatable=0;whiteSpace=wrap;html=1;" parent="UbyreCae_YLPJ1FmVZYK-16" vertex="1">
          <mxGeometry y="70" width="140" height="20" as="geometry" />
        </mxCell>
        <mxCell id="KgunOmB92rTkKpUrxYC2-65" value="Receiver" style="text;strokeColor=none;fillColor=none;align=left;verticalAlign=middle;spacingLeft=4;spacingRight=4;overflow=hidden;points=[[0,0.5],[1,0.5]];portConstraint=eastwest;rotatable=0;whiteSpace=wrap;html=1;" vertex="1" parent="UbyreCae_YLPJ1FmVZYK-16">
          <mxGeometry y="90" width="140" height="20" as="geometry" />
        </mxCell>
        <mxCell id="UbyreCae_YLPJ1FmVZYK-21" value="EventData" style="text;strokeColor=none;fillColor=none;align=left;verticalAlign=middle;spacingLeft=4;spacingRight=4;overflow=hidden;points=[[0,0.5],[1,0.5]];portConstraint=eastwest;rotatable=0;whiteSpace=wrap;html=1;" parent="UbyreCae_YLPJ1FmVZYK-16" vertex="1">
          <mxGeometry y="110" width="140" height="20" as="geometry" />
        </mxCell>
        <mxCell id="UbyreCae_YLPJ1FmVZYK-20" value="EventTime" style="text;strokeColor=none;fillColor=none;align=left;verticalAlign=middle;spacingLeft=4;spacingRight=4;overflow=hidden;points=[[0,0.5],[1,0.5]];portConstraint=eastwest;rotatable=0;whiteSpace=wrap;html=1;" parent="UbyreCae_YLPJ1FmVZYK-16" vertex="1">
          <mxGeometry y="130" width="140" height="20" as="geometry" />
        </mxCell>
        <mxCell id="UbyreCae_YLPJ1FmVZYK-30" value="BundleId" style="text;strokeColor=none;fillColor=none;align=left;verticalAlign=middle;spacingLeft=4;spacingRight=4;overflow=hidden;points=[[0,0.5],[1,0.5]];portConstraint=eastwest;rotatable=0;whiteSpace=wrap;html=1;" parent="UbyreCae_YLPJ1FmVZYK-16" vertex="1">
          <mxGeometry y="150" width="140" height="20" as="geometry" />
        </mxCell>
        <mxCell id="UbyreCae_YLPJ1FmVZYK-22" value="Bundle" style="swimlane;fontStyle=0;childLayout=stackLayout;horizontal=1;startSize=30;horizontalStack=0;resizeParent=1;resizeParentMax=0;resizeLast=0;collapsible=1;marginBottom=0;whiteSpace=wrap;html=1;" parent="1" vertex="1">
          <mxGeometry x="320" y="80" width="140" height="170" as="geometry" />
        </mxCell>
        <mxCell id="UbyreCae_YLPJ1FmVZYK-29" value="BundleId&amp;nbsp;" style="text;strokeColor=none;fillColor=none;align=left;verticalAlign=middle;spacingLeft=4;spacingRight=4;overflow=hidden;points=[[0,0.5],[1,0.5]];portConstraint=eastwest;rotatable=0;whiteSpace=wrap;html=1;flipV=1;" parent="UbyreCae_YLPJ1FmVZYK-22" vertex="1">
          <mxGeometry y="30" width="140" height="20" as="geometry" />
        </mxCell>
        <mxCell id="UbyreCae_YLPJ1FmVZYK-23" value="Sender" style="text;strokeColor=none;fillColor=none;align=left;verticalAlign=middle;spacingLeft=4;spacingRight=4;overflow=hidden;points=[[0,0.5],[1,0.5]];portConstraint=eastwest;rotatable=0;whiteSpace=wrap;html=1;" parent="UbyreCae_YLPJ1FmVZYK-22" vertex="1">
          <mxGeometry y="50" width="140" height="20" as="geometry" />
        </mxCell>
        <mxCell id="UbyreCae_YLPJ1FmVZYK-24" value="Receiver" style="text;strokeColor=none;fillColor=none;align=left;verticalAlign=middle;spacingLeft=4;spacingRight=4;overflow=hidden;points=[[0,0.5],[1,0.5]];portConstraint=eastwest;rotatable=0;whiteSpace=wrap;html=1;" parent="UbyreCae_YLPJ1FmVZYK-22" vertex="1">
          <mxGeometry y="70" width="140" height="20" as="geometry" />
        </mxCell>
        <mxCell id="UbyreCae_YLPJ1FmVZYK-27" value="MessageType" style="text;strokeColor=none;fillColor=none;align=left;verticalAlign=middle;spacingLeft=4;spacingRight=4;overflow=hidden;points=[[0,0.5],[1,0.5]];portConstraint=eastwest;rotatable=0;whiteSpace=wrap;html=1;" parent="UbyreCae_YLPJ1FmVZYK-22" vertex="1">
          <mxGeometry y="90" width="140" height="20" as="geometry" />
        </mxCell>
        <mxCell id="UbyreCae_YLPJ1FmVZYK-33" value="MessageCategory" style="text;strokeColor=none;fillColor=none;align=left;verticalAlign=middle;spacingLeft=4;spacingRight=4;overflow=hidden;points=[[0,0.5],[1,0.5]];portConstraint=eastwest;rotatable=0;whiteSpace=wrap;html=1;" parent="UbyreCae_YLPJ1FmVZYK-22" vertex="1">
          <mxGeometry y="110" width="140" height="20" as="geometry" />
        </mxCell>
        <mxCell id="UbyreCae_YLPJ1FmVZYK-41" value="CreationTime" style="text;strokeColor=none;fillColor=none;align=left;verticalAlign=middle;spacingLeft=4;spacingRight=4;overflow=hidden;points=[[0,0.5],[1,0.5]];portConstraint=eastwest;rotatable=0;whiteSpace=wrap;html=1;" parent="UbyreCae_YLPJ1FmVZYK-22" vertex="1">
          <mxGeometry y="130" width="140" height="20" as="geometry" />
        </mxCell>
        <mxCell id="KgunOmB92rTkKpUrxYC2-1" value="MessageCount" style="text;strokeColor=none;fillColor=none;align=left;verticalAlign=middle;spacingLeft=4;spacingRight=4;overflow=hidden;points=[[0,0.5],[1,0.5]];portConstraint=eastwest;rotatable=0;whiteSpace=wrap;html=1;" vertex="1" parent="UbyreCae_YLPJ1FmVZYK-22">
          <mxGeometry y="150" width="140" height="20" as="geometry" />
        </mxCell>
        <mxCell id="UbyreCae_YLPJ1FmVZYK-34" value="&lt;b&gt;EventData&lt;/b&gt;&lt;div&gt;EventType specific JSON structure containing the data &amp;nbsp;to be sent&lt;/div&gt;" style="shape=note;whiteSpace=wrap;html=1;backgroundOutline=1;darkOpacity=0.05;fillColor=#fff2cc;strokeColor=#d6b656;" parent="1" vertex="1">
          <mxGeometry x="40" y="840" width="110" height="100" as="geometry" />
        </mxCell>
        <mxCell id="UbyreCae_YLPJ1FmVZYK-39" value="&lt;b&gt;MessageData&lt;/b&gt;&lt;div&gt;MessageType specific JSON structure containing the data of one ore more outgoing events&lt;/div&gt;" style="shape=note;whiteSpace=wrap;html=1;backgroundOutline=1;darkOpacity=0.05;fillColor=#fff2cc;strokeColor=#d6b656;size=29;" parent="1" vertex="1">
          <mxGeometry x="110" y="670" width="110" height="100" as="geometry" />
        </mxCell>
        <mxCell id="UbyreCae_YLPJ1FmVZYK-40" value="&lt;b&gt;EventType&lt;/b&gt;&lt;div&gt;F端r jeden EventType wird ein Handler bereitgestellt, der das Event in eine Nachricht 端berf端hrt. Die NachrichtenId der Nachricht wird gespeichert. Wenn f端r den EventType kein Handler definiert ist, wird der Versand mit einem Verarbeitungsfehler abgebrochen.&lt;/div&gt;" style="shape=note;whiteSpace=wrap;html=1;backgroundOutline=1;darkOpacity=0.05;fillColor=#fff2cc;strokeColor=#d6b656;" parent="1" vertex="1">
          <mxGeometry x="40" y="960" width="210" height="130" as="geometry" />
        </mxCell>
        <mxCell id="KgunOmB92rTkKpUrxYC2-4" value="" style="edgeStyle=orthogonalEdgeStyle;rounded=0;orthogonalLoop=1;jettySize=auto;html=1;" edge="1" parent="1" source="KgunOmB92rTkKpUrxYC2-2" target="KgunOmB92rTkKpUrxYC2-3">
          <mxGeometry relative="1" as="geometry" />
        </mxCell>
        <mxCell id="KgunOmB92rTkKpUrxYC2-2" value="Neues OutgoingEvent anlegen" style="html=1;align=center;verticalAlign=middle;rounded=1;absoluteArcSize=1;arcSize=10;dashed=0;whiteSpace=wrap;" vertex="1" parent="1">
          <mxGeometry x="480" y="650" width="140" height="40" as="geometry" />
        </mxCell>
        <mxCell id="KgunOmB92rTkKpUrxYC2-25" value="" style="edgeStyle=orthogonalEdgeStyle;rounded=0;orthogonalLoop=1;jettySize=auto;html=1;" edge="1" parent="1" source="KgunOmB92rTkKpUrxYC2-3" target="KgunOmB92rTkKpUrxYC2-6">
          <mxGeometry relative="1" as="geometry" />
        </mxCell>
        <mxCell id="KgunOmB92rTkKpUrxYC2-3" value="MessageType und MessageCategory ermitteln&amp;nbsp;" style="html=1;align=center;verticalAlign=middle;rounded=1;absoluteArcSize=1;arcSize=10;dashed=0;whiteSpace=wrap;" vertex="1" parent="1">
          <mxGeometry x="480" y="730" width="140" height="50" as="geometry" />
        </mxCell>
        <mxCell id="KgunOmB92rTkKpUrxYC2-38" value="" style="edgeStyle=orthogonalEdgeStyle;rounded=0;orthogonalLoop=1;jettySize=auto;html=1;" edge="1" parent="1" source="KgunOmB92rTkKpUrxYC2-5" target="KgunOmB92rTkKpUrxYC2-37">
          <mxGeometry relative="1" as="geometry" />
        </mxCell>
        <mxCell id="KgunOmB92rTkKpUrxYC2-5" value="EventCount f端r ausgehende Nachricht erh旦hen&amp;nbsp;" style="html=1;align=center;verticalAlign=top;rounded=1;absoluteArcSize=1;arcSize=10;dashed=0;whiteSpace=wrap;" vertex="1" parent="1">
          <mxGeometry x="580" y="870" width="140" height="55" as="geometry" />
        </mxCell>
        <mxCell id="KgunOmB92rTkKpUrxYC2-8" value="" style="edgeStyle=orthogonalEdgeStyle;rounded=0;orthogonalLoop=1;jettySize=auto;html=1;" edge="1" parent="1" source="KgunOmB92rTkKpUrxYC2-6" target="KgunOmB92rTkKpUrxYC2-5">
          <mxGeometry relative="1" as="geometry" />
        </mxCell>
        <mxCell id="KgunOmB92rTkKpUrxYC2-28" value="Nachrichtenpaket&lt;div&gt;vorhanden&lt;/div&gt;" style="edgeLabel;html=1;align=center;verticalAlign=middle;resizable=0;points=[];" vertex="1" connectable="0" parent="KgunOmB92rTkKpUrxYC2-8">
          <mxGeometry x="-0.4207" y="-2" relative="1" as="geometry">
            <mxPoint x="30" y="3" as="offset" />
          </mxGeometry>
        </mxCell>
        <mxCell id="KgunOmB92rTkKpUrxYC2-16" value="" style="edgeStyle=orthogonalEdgeStyle;rounded=0;orthogonalLoop=1;jettySize=auto;html=1;" edge="1" parent="1" source="KgunOmB92rTkKpUrxYC2-6" target="KgunOmB92rTkKpUrxYC2-15">
          <mxGeometry relative="1" as="geometry" />
        </mxCell>
        <mxCell id="KgunOmB92rTkKpUrxYC2-27" value="Keine freies ausgehende&amp;nbsp;&lt;div&gt;Nachrichtenpaket vorhanden&lt;/div&gt;" style="edgeLabel;html=1;align=center;verticalAlign=middle;resizable=0;points=[];" vertex="1" connectable="0" parent="KgunOmB92rTkKpUrxYC2-16">
          <mxGeometry x="-0.3626" y="2" relative="1" as="geometry">
            <mxPoint x="-45" y="-2" as="offset" />
          </mxGeometry>
        </mxCell>
        <mxCell id="KgunOmB92rTkKpUrxYC2-6" value="" style="rhombus;" vertex="1" parent="1">
          <mxGeometry x="532.5" y="820" width="35" height="30" as="geometry" />
        </mxCell>
        <mxCell id="KgunOmB92rTkKpUrxYC2-15" value="Ausgehende Nachricht anlegen" style="html=1;align=center;verticalAlign=top;rounded=1;absoluteArcSize=1;arcSize=10;dashed=0;whiteSpace=wrap;" vertex="1" parent="1">
          <mxGeometry x="380" y="870" width="140" height="40" as="geometry" />
        </mxCell>
        <mxCell id="KgunOmB92rTkKpUrxYC2-17" value="NachrichtenId dem AusgehendenEvent zuordnen" style="html=1;align=center;verticalAlign=middle;rounded=1;absoluteArcSize=1;arcSize=10;dashed=0;whiteSpace=wrap;" vertex="1" parent="1">
          <mxGeometry x="425" y="1102.5" width="140" height="55" as="geometry" />
        </mxCell>
        <mxCell id="KgunOmB92rTkKpUrxYC2-35" value="" style="edgeStyle=orthogonalEdgeStyle;rounded=0;orthogonalLoop=1;jettySize=auto;html=1;" edge="1" parent="1" source="KgunOmB92rTkKpUrxYC2-29" target="KgunOmB92rTkKpUrxYC2-17">
          <mxGeometry relative="1" as="geometry" />
        </mxCell>
        <mxCell id="KgunOmB92rTkKpUrxYC2-29" value="" style="rhombus;" vertex="1" parent="1">
          <mxGeometry x="535" y="975" width="30" height="30" as="geometry" />
        </mxCell>
        <mxCell id="KgunOmB92rTkKpUrxYC2-33" value="" style="edgeStyle=orthogonalEdgeStyle;orthogonalLoop=1;jettySize=auto;html=1;rounded=0;exitX=0.5;exitY=1;exitDx=0;exitDy=0;entryX=0;entryY=0.5;entryDx=0;entryDy=0;" edge="1" parent="1" source="KgunOmB92rTkKpUrxYC2-15" target="KgunOmB92rTkKpUrxYC2-29">
          <mxGeometry width="80" relative="1" as="geometry">
            <mxPoint x="380" y="1010" as="sourcePoint" />
            <mxPoint x="470" y="920" as="targetPoint" />
          </mxGeometry>
        </mxCell>
        <mxCell id="KgunOmB92rTkKpUrxYC2-37" value="" style="html=1;points=[];perimeter=orthogonalPerimeter;fillColor=strokeColor;direction=south;" vertex="1" parent="1">
          <mxGeometry x="610" y="960" width="80" height="5" as="geometry" />
        </mxCell>
        <mxCell id="KgunOmB92rTkKpUrxYC2-40" value="" style="edgeStyle=orthogonalEdgeStyle;orthogonalLoop=1;jettySize=auto;html=1;rounded=0;entryX=1;entryY=0.5;entryDx=0;entryDy=0;exitX=0;exitY=0.875;exitDx=0;exitDy=0;exitPerimeter=0;" edge="1" parent="1" source="KgunOmB92rTkKpUrxYC2-37" target="KgunOmB92rTkKpUrxYC2-29">
          <mxGeometry width="80" relative="1" as="geometry">
            <mxPoint x="660" y="1020" as="sourcePoint" />
            <mxPoint x="750" y="820" as="targetPoint" />
            <Array as="points">
              <mxPoint x="620" y="990" />
            </Array>
          </mxGeometry>
        </mxCell>
        <mxCell id="KgunOmB92rTkKpUrxYC2-44" value="Paket versenden" style="html=1;align=center;verticalAlign=middle;rounded=1;absoluteArcSize=1;arcSize=10;dashed=0;whiteSpace=wrap;" vertex="1" parent="1">
          <mxGeometry x="610" y="1110" width="140" height="40" as="geometry" />
        </mxCell>
        <mxCell id="KgunOmB92rTkKpUrxYC2-45" value="" style="edgeStyle=orthogonalEdgeStyle;orthogonalLoop=1;jettySize=auto;html=1;rounded=0;exitX=0;exitY=0.125;exitDx=0;exitDy=0;exitPerimeter=0;entryX=0;entryY=0.5;entryDx=0;entryDy=0;" edge="1" parent="1" source="KgunOmB92rTkKpUrxYC2-37" target="KgunOmB92rTkKpUrxYC2-46">
          <mxGeometry width="80" relative="1" as="geometry">
            <mxPoint x="700" y="1110" as="sourcePoint" />
            <mxPoint x="780" y="1010" as="targetPoint" />
            <Array as="points">
              <mxPoint x="680" y="1020" />
              <mxPoint x="680" y="1020" />
            </Array>
          </mxGeometry>
        </mxCell>
        <mxCell id="KgunOmB92rTkKpUrxYC2-47" value="" style="edgeStyle=orthogonalEdgeStyle;rounded=0;orthogonalLoop=1;jettySize=auto;html=1;" edge="1" parent="1" source="KgunOmB92rTkKpUrxYC2-46" target="KgunOmB92rTkKpUrxYC2-44">
          <mxGeometry relative="1" as="geometry" />
        </mxCell>
        <mxCell id="KgunOmB92rTkKpUrxYC2-48" value="Packet voll" style="edgeLabel;html=1;align=center;verticalAlign=middle;resizable=0;points=[];" vertex="1" connectable="0" parent="KgunOmB92rTkKpUrxYC2-47">
          <mxGeometry x="-0.2667" y="1" relative="1" as="geometry">
            <mxPoint as="offset" />
          </mxGeometry>
        </mxCell>
        <mxCell id="KgunOmB92rTkKpUrxYC2-50" value="" style="edgeStyle=orthogonalEdgeStyle;rounded=0;orthogonalLoop=1;jettySize=auto;html=1;" edge="1" parent="1" source="KgunOmB92rTkKpUrxYC2-46" target="KgunOmB92rTkKpUrxYC2-49">
          <mxGeometry relative="1" as="geometry" />
        </mxCell>
        <mxCell id="KgunOmB92rTkKpUrxYC2-46" value="" style="rhombus;direction=south;" vertex="1" parent="1">
          <mxGeometry x="665" y="1035" width="30" height="30" as="geometry" />
        </mxCell>
        <mxCell id="KgunOmB92rTkKpUrxYC2-49" value="" style="shape=sumEllipse;perimeter=ellipsePerimeter;html=1;backgroundOutline=1;" vertex="1" parent="1">
          <mxGeometry x="750" y="1035" width="30" height="30" as="geometry" />
        </mxCell>
        <mxCell id="KgunOmB92rTkKpUrxYC2-54" value="EventTypeConfiguration" style="swimlane;fontStyle=0;childLayout=stackLayout;horizontal=1;startSize=30;horizontalStack=0;resizeParent=1;resizeParentMax=0;resizeLast=0;collapsible=1;marginBottom=0;whiteSpace=wrap;html=1;" vertex="1" parent="1">
          <mxGeometry x="520" y="80" width="140" height="90" as="geometry" />
        </mxCell>
        <mxCell id="KgunOmB92rTkKpUrxYC2-55" value="EventType" style="text;strokeColor=none;fillColor=none;align=left;verticalAlign=middle;spacingLeft=4;spacingRight=4;overflow=hidden;points=[[0,0.5],[1,0.5]];portConstraint=eastwest;rotatable=0;whiteSpace=wrap;html=1;" vertex="1" parent="KgunOmB92rTkKpUrxYC2-54">
          <mxGeometry y="30" width="140" height="20" as="geometry" />
        </mxCell>
        <mxCell id="KgunOmB92rTkKpUrxYC2-56" value="MessageType" style="text;strokeColor=none;fillColor=none;align=left;verticalAlign=middle;spacingLeft=4;spacingRight=4;overflow=hidden;points=[[0,0.5],[1,0.5]];portConstraint=eastwest;rotatable=0;whiteSpace=wrap;html=1;" vertex="1" parent="KgunOmB92rTkKpUrxYC2-54">
          <mxGeometry y="50" width="140" height="20" as="geometry" />
        </mxCell>
        <mxCell id="KgunOmB92rTkKpUrxYC2-58" value="MessageCategory" style="text;strokeColor=none;fillColor=none;align=left;verticalAlign=middle;spacingLeft=4;spacingRight=4;overflow=hidden;points=[[0,0.5],[1,0.5]];portConstraint=eastwest;rotatable=0;whiteSpace=wrap;html=1;" vertex="1" parent="KgunOmB92rTkKpUrxYC2-54">
          <mxGeometry y="70" width="140" height="20" as="geometry" />
        </mxCell>
        <mxCell id="KgunOmB92rTkKpUrxYC2-59" value="BundleConfiguration" style="swimlane;fontStyle=0;childLayout=stackLayout;horizontal=1;startSize=30;horizontalStack=0;resizeParent=1;resizeParentMax=0;resizeLast=0;collapsible=1;marginBottom=0;whiteSpace=wrap;html=1;" vertex="1" parent="1">
          <mxGeometry x="520" y="200" width="150" height="110" as="geometry" />
        </mxCell>
        <mxCell id="KgunOmB92rTkKpUrxYC2-60" value="MessageType" style="text;strokeColor=none;fillColor=none;align=left;verticalAlign=middle;spacingLeft=4;spacingRight=4;overflow=hidden;points=[[0,0.5],[1,0.5]];portConstraint=eastwest;rotatable=0;whiteSpace=wrap;html=1;" vertex="1" parent="KgunOmB92rTkKpUrxYC2-59">
          <mxGeometry y="30" width="150" height="20" as="geometry" />
        </mxCell>
        <mxCell id="KgunOmB92rTkKpUrxYC2-61" value="MessageCategory" style="text;strokeColor=none;fillColor=none;align=left;verticalAlign=middle;spacingLeft=4;spacingRight=4;overflow=hidden;points=[[0,0.5],[1,0.5]];portConstraint=eastwest;rotatable=0;whiteSpace=wrap;html=1;" vertex="1" parent="KgunOmB92rTkKpUrxYC2-59">
          <mxGeometry y="50" width="150" height="20" as="geometry" />
        </mxCell>
        <mxCell id="KgunOmB92rTkKpUrxYC2-62" value="MaxMessages" style="text;strokeColor=none;fillColor=none;align=left;verticalAlign=middle;spacingLeft=4;spacingRight=4;overflow=hidden;points=[[0,0.5],[1,0.5]];portConstraint=eastwest;rotatable=0;whiteSpace=wrap;html=1;" vertex="1" parent="KgunOmB92rTkKpUrxYC2-59">
          <mxGeometry y="70" width="150" height="20" as="geometry" />
        </mxCell>
        <mxCell id="KgunOmB92rTkKpUrxYC2-64" value="MaxAge" style="text;strokeColor=none;fillColor=none;align=left;verticalAlign=middle;spacingLeft=4;spacingRight=4;overflow=hidden;points=[[0,0.5],[1,0.5]];portConstraint=eastwest;rotatable=0;whiteSpace=wrap;html=1;" vertex="1" parent="KgunOmB92rTkKpUrxYC2-59">
          <mxGeometry y="90" width="150" height="20" as="geometry" />
        </mxCell>
        <mxCell id="KgunOmB92rTkKpUrxYC2-63" value="&lt;p style=&quot;line-height: 100%;&quot;&gt;Die EventId identifiziert das Event in der Nachricht. Das kann die BGM-Referenz sein (MSCONS) oder die IDE-Referenz (UTILMD). Die MessageId eines B端ndels wird immer als Datenaustausch-Referenz verwendet.&lt;/p&gt;" style="shape=note;whiteSpace=wrap;html=1;backgroundOutline=1;darkOpacity=0.05;fillColor=#fff2cc;strokeColor=#d6b656;align=left;" vertex="1" parent="1">
          <mxGeometry x="204" y="760" width="210" height="180" as="geometry" />
        </mxCell>
        <mxCell id="KgunOmB92rTkKpUrxYC2-71" value="Die zu versendenden Daten werden beim &amp;nbsp;in die Struktur dermentsprechenden&amp;nbsp;" style="shape=note;whiteSpace=wrap;html=1;backgroundOutline=1;darkOpacity=0.05;fillColor=#fff2cc;strokeColor=#d6b656;" vertex="1" parent="1">
          <mxGeometry x="140" y="260" width="280" height="100" as="geometry" />
        </mxCell>
        <mxCell id="KgunOmB92rTkKpUrxYC2-74" value="Bundler" style="edgeStyle=orthogonalEdgeStyle;rounded=0;orthogonalLoop=1;jettySize=auto;html=1;" edge="1" parent="1" source="KgunOmB92rTkKpUrxYC2-72" target="KgunOmB92rTkKpUrxYC2-73">
          <mxGeometry relative="1" as="geometry" />
        </mxCell>
        <mxCell id="KgunOmB92rTkKpUrxYC2-72" value="Event-Datenstruktur" style="whiteSpace=wrap;html=1;" vertex="1" parent="1">
          <mxGeometry x="40" y="400" width="120" height="40" as="geometry" />
        </mxCell>
        <mxCell id="KgunOmB92rTkKpUrxYC2-76" value="" style="edgeStyle=orthogonalEdgeStyle;rounded=0;orthogonalLoop=1;jettySize=auto;html=1;" edge="1" parent="1" source="KgunOmB92rTkKpUrxYC2-73" target="KgunOmB92rTkKpUrxYC2-75">
          <mxGeometry relative="1" as="geometry" />
        </mxCell>
        <mxCell id="KgunOmB92rTkKpUrxYC2-90" value="Packer" style="edgeLabel;html=1;align=center;verticalAlign=middle;resizable=0;points=[];" vertex="1" connectable="0" parent="KgunOmB92rTkKpUrxYC2-76">
          <mxGeometry relative="1" as="geometry">
            <mxPoint as="offset" />
          </mxGeometry>
        </mxCell>
        <mxCell id="KgunOmB92rTkKpUrxYC2-73" value="Edifact-Objektstruktur" style="whiteSpace=wrap;html=1;" vertex="1" parent="1">
          <mxGeometry x="40" y="480" width="120" height="40" as="geometry" />
        </mxCell>
        <mxCell id="KgunOmB92rTkKpUrxYC2-75" value="EDIFACT" style="whiteSpace=wrap;html=1;" vertex="1" parent="1">
          <mxGeometry x="40" y="560" width="120" height="40" as="geometry" />
        </mxCell>
        <mxCell id="KgunOmB92rTkKpUrxYC2-81" value="" style="edgeStyle=orthogonalEdgeStyle;rounded=0;orthogonalLoop=1;jettySize=auto;html=1;" edge="1" parent="1" source="KgunOmB92rTkKpUrxYC2-77" target="KgunOmB92rTkKpUrxYC2-80">
          <mxGeometry relative="1" as="geometry" />
        </mxCell>
        <mxCell id="KgunOmB92rTkKpUrxYC2-88" value="1" style="edgeLabel;html=1;align=left;verticalAlign=middle;resizable=0;points=[];fontSize=8;" vertex="1" connectable="0" parent="KgunOmB92rTkKpUrxYC2-81">
          <mxGeometry x="-1" relative="1" as="geometry">
            <mxPoint y="5" as="offset" />
          </mxGeometry>
        </mxCell>
        <mxCell id="KgunOmB92rTkKpUrxYC2-89" value="1" style="edgeLabel;html=1;align=left;verticalAlign=middle;resizable=0;points=[];spacingBottom=0;spacingLeft=0;fontSize=8;" vertex="1" connectable="0" parent="KgunOmB92rTkKpUrxYC2-81">
          <mxGeometry x="1" relative="1" as="geometry">
            <mxPoint y="-14" as="offset" />
          </mxGeometry>
        </mxCell>
        <mxCell id="KgunOmB92rTkKpUrxYC2-77" value="EDIFACT" style="whiteSpace=wrap;html=1;align=left;" vertex="1" parent="1">
          <mxGeometry x="240" y="400" width="120" height="40" as="geometry" />
        </mxCell>
        <mxCell id="KgunOmB92rTkKpUrxYC2-85" value="" style="edgeStyle=orthogonalEdgeStyle;rounded=0;orthogonalLoop=1;jettySize=auto;html=1;" edge="1" parent="1" source="KgunOmB92rTkKpUrxYC2-80" target="KgunOmB92rTkKpUrxYC2-84">
          <mxGeometry relative="1" as="geometry" />
        </mxCell>
        <mxCell id="KgunOmB92rTkKpUrxYC2-80" value="Edifact-Objectstruktur" style="whiteSpace=wrap;html=1;" vertex="1" parent="1">
          <mxGeometry x="240" y="480" width="120" height="40" as="geometry" />
        </mxCell>
        <mxCell id="KgunOmB92rTkKpUrxYC2-84" value="Event-Datenstruktur" style="whiteSpace=wrap;html=1;" vertex="1" parent="1">
          <mxGeometry x="240" y="560" width="120" height="40" as="geometry" />
        </mxCell>
        <mxCell id="KgunOmB92rTkKpUrxYC2-93" value="" style="edgeStyle=orthogonalEdgeStyle;rounded=0;orthogonalLoop=1;jettySize=auto;html=1;" edge="1" parent="1" source="KgunOmB92rTkKpUrxYC2-91" target="KgunOmB92rTkKpUrxYC2-92">
          <mxGeometry relative="1" as="geometry" />
        </mxCell>
        <mxCell id="KgunOmB92rTkKpUrxYC2-91" value="F辰llige Pakete versenden" style="html=1;align=center;verticalAlign=middle;rounded=1;absoluteArcSize=1;arcSize=10;dashed=0;whiteSpace=wrap;" vertex="1" parent="1">
          <mxGeometry x="40" y="1280" width="140" height="40" as="geometry" />
        </mxCell>
        <mxCell id="KgunOmB92rTkKpUrxYC2-92" value="" style="html=1;align=center;verticalAlign=middle;rounded=1;absoluteArcSize=1;arcSize=10;dashed=0;whiteSpace=wrap;" vertex="1" parent="1">
          <mxGeometry x="40" y="1360" width="140" height="40" as="geometry" />
        </mxCell>
        <mxCell id="KgunOmB92rTkKpUrxYC2-94" value="" style="shape=table;startSize=0;container=1;collapsible=0;childLayout=tableLayout;" vertex="1" parent="1">
          <mxGeometry x="-60" y="1480" width="750" height="280" as="geometry" />
        </mxCell>
        <mxCell id="KgunOmB92rTkKpUrxYC2-95" value="" style="shape=tableRow;horizontal=0;startSize=0;swimlaneHead=0;swimlaneBody=0;strokeColor=inherit;top=0;left=0;bottom=0;right=0;collapsible=0;dropTarget=0;fillColor=none;points=[[0,0.5],[1,0.5]];portConstraint=eastwest;" vertex="1" parent="KgunOmB92rTkKpUrxYC2-94">
          <mxGeometry width="750" height="40" as="geometry" />
        </mxCell>
        <mxCell id="KgunOmB92rTkKpUrxYC2-107" value="Medium" style="shape=partialRectangle;html=1;whiteSpace=wrap;connectable=0;strokeColor=inherit;overflow=hidden;fillColor=none;top=0;left=0;bottom=0;right=0;pointerEvents=1;" vertex="1" parent="KgunOmB92rTkKpUrxYC2-95">
          <mxGeometry width="60" height="40" as="geometry">
            <mxRectangle width="60" height="40" as="alternateBounds" />
          </mxGeometry>
        </mxCell>
        <mxCell id="KgunOmB92rTkKpUrxYC2-96" value="Event" style="shape=partialRectangle;html=1;whiteSpace=wrap;connectable=0;strokeColor=inherit;overflow=hidden;fillColor=none;top=0;left=0;bottom=0;right=0;pointerEvents=1;" vertex="1" parent="KgunOmB92rTkKpUrxYC2-95">
          <mxGeometry x="60" width="200" height="40" as="geometry">
            <mxRectangle width="200" height="40" as="alternateBounds" />
          </mxGeometry>
        </mxCell>
        <mxCell id="KgunOmB92rTkKpUrxYC2-97" value="Bundle" style="shape=partialRectangle;html=1;whiteSpace=wrap;connectable=0;strokeColor=inherit;overflow=hidden;fillColor=none;top=0;left=0;bottom=0;right=0;pointerEvents=1;" vertex="1" parent="KgunOmB92rTkKpUrxYC2-95">
          <mxGeometry x="260" width="98" height="40" as="geometry">
            <mxRectangle width="98" height="40" as="alternateBounds" />
          </mxGeometry>
        </mxCell>
        <mxCell id="KgunOmB92rTkKpUrxYC2-98" value="Message" style="shape=partialRectangle;html=1;whiteSpace=wrap;connectable=0;strokeColor=inherit;overflow=hidden;fillColor=none;top=0;left=0;bottom=0;right=0;pointerEvents=1;" vertex="1" parent="KgunOmB92rTkKpUrxYC2-95">
          <mxGeometry x="358" width="98" height="40" as="geometry">
            <mxRectangle width="98" height="40" as="alternateBounds" />
          </mxGeometry>
        </mxCell>
        <mxCell id="KgunOmB92rTkKpUrxYC2-99" value="Usecase" style="shape=partialRectangle;html=1;whiteSpace=wrap;connectable=0;strokeColor=inherit;overflow=hidden;fillColor=none;top=0;left=0;bottom=0;right=0;pointerEvents=1;" vertex="1" parent="KgunOmB92rTkKpUrxYC2-95">
          <mxGeometry x="456" width="98" height="40" as="geometry">
            <mxRectangle width="98" height="40" as="alternateBounds" />
          </mxGeometry>
        </mxCell>
        <mxCell id="KgunOmB92rTkKpUrxYC2-105" value="SG" style="shape=partialRectangle;html=1;whiteSpace=wrap;connectable=0;strokeColor=inherit;overflow=hidden;fillColor=none;top=0;left=0;bottom=0;right=0;pointerEvents=1;" vertex="1" parent="KgunOmB92rTkKpUrxYC2-95">
          <mxGeometry x="554" width="98" height="40" as="geometry">
            <mxRectangle width="98" height="40" as="alternateBounds" />
          </mxGeometry>
        </mxCell>
        <mxCell id="KgunOmB92rTkKpUrxYC2-116" value="Size" style="shape=partialRectangle;html=1;whiteSpace=wrap;connectable=0;strokeColor=inherit;overflow=hidden;fillColor=none;top=0;left=0;bottom=0;right=0;pointerEvents=1;" vertex="1" parent="KgunOmB92rTkKpUrxYC2-95">
          <mxGeometry x="652" width="98" height="40" as="geometry">
            <mxRectangle width="98" height="40" as="alternateBounds" />
          </mxGeometry>
        </mxCell>
        <mxCell id="KgunOmB92rTkKpUrxYC2-100" value="" style="shape=tableRow;horizontal=0;startSize=0;swimlaneHead=0;swimlaneBody=0;strokeColor=inherit;top=0;left=0;bottom=0;right=0;collapsible=0;dropTarget=0;fillColor=none;points=[[0,0.5],[1,0.5]];portConstraint=eastwest;" vertex="1" parent="KgunOmB92rTkKpUrxYC2-94">
          <mxGeometry y="40" width="750" height="40" as="geometry" />
        </mxCell>
        <mxCell id="KgunOmB92rTkKpUrxYC2-108" value="Strom" style="shape=partialRectangle;html=1;whiteSpace=wrap;connectable=0;strokeColor=inherit;overflow=hidden;fillColor=none;top=0;left=0;bottom=0;right=0;pointerEvents=1;" vertex="1" parent="KgunOmB92rTkKpUrxYC2-100">
          <mxGeometry width="60" height="40" as="geometry">
            <mxRectangle width="60" height="40" as="alternateBounds" />
          </mxGeometry>
        </mxCell>
        <mxCell id="KgunOmB92rTkKpUrxYC2-101" value="Z辰hlerstand" style="shape=partialRectangle;html=1;whiteSpace=wrap;connectable=0;strokeColor=inherit;overflow=hidden;fillColor=none;top=0;left=0;bottom=0;right=0;pointerEvents=1;" vertex="1" parent="KgunOmB92rTkKpUrxYC2-100">
          <mxGeometry x="60" width="200" height="40" as="geometry">
            <mxRectangle width="200" height="40" as="alternateBounds" />
          </mxGeometry>
        </mxCell>
        <mxCell id="KgunOmB92rTkKpUrxYC2-102" value="VL7" style="shape=partialRectangle;html=1;whiteSpace=wrap;connectable=0;strokeColor=inherit;overflow=hidden;fillColor=none;top=0;left=0;bottom=0;right=0;pointerEvents=1;" vertex="1" parent="KgunOmB92rTkKpUrxYC2-100">
          <mxGeometry x="260" width="98" height="40" as="geometry">
            <mxRectangle width="98" height="40" as="alternateBounds" />
          </mxGeometry>
        </mxCell>
        <mxCell id="KgunOmB92rTkKpUrxYC2-103" value="MSCONS" style="shape=partialRectangle;html=1;whiteSpace=wrap;connectable=0;strokeColor=inherit;overflow=hidden;fillColor=none;top=0;left=0;bottom=0;right=0;pointerEvents=1;" vertex="1" parent="KgunOmB92rTkKpUrxYC2-100">
          <mxGeometry x="358" width="98" height="40" as="geometry">
            <mxRectangle width="98" height="40" as="alternateBounds" />
          </mxGeometry>
        </mxCell>
        <mxCell id="KgunOmB92rTkKpUrxYC2-104" value="13017" style="shape=partialRectangle;html=1;whiteSpace=wrap;connectable=0;strokeColor=inherit;overflow=hidden;fillColor=none;top=0;left=0;bottom=0;right=0;pointerEvents=1;" vertex="1" parent="KgunOmB92rTkKpUrxYC2-100">
          <mxGeometry x="456" width="98" height="40" as="geometry">
            <mxRectangle width="98" height="40" as="alternateBounds" />
          </mxGeometry>
        </mxCell>
        <mxCell id="KgunOmB92rTkKpUrxYC2-106" value="UNH" style="shape=partialRectangle;html=1;whiteSpace=wrap;connectable=0;strokeColor=inherit;overflow=hidden;fillColor=none;top=0;left=0;bottom=0;right=0;pointerEvents=1;" vertex="1" parent="KgunOmB92rTkKpUrxYC2-100">
          <mxGeometry x="554" width="98" height="40" as="geometry">
            <mxRectangle width="98" height="40" as="alternateBounds" />
          </mxGeometry>
        </mxCell>
        <mxCell id="KgunOmB92rTkKpUrxYC2-117" value="1000" style="shape=partialRectangle;html=1;whiteSpace=wrap;connectable=0;strokeColor=inherit;overflow=hidden;fillColor=none;top=0;left=0;bottom=0;right=0;pointerEvents=1;" vertex="1" parent="KgunOmB92rTkKpUrxYC2-100">
          <mxGeometry x="652" width="98" height="40" as="geometry">
            <mxRectangle width="98" height="40" as="alternateBounds" />
          </mxGeometry>
        </mxCell>
        <mxCell id="KgunOmB92rTkKpUrxYC2-109" style="shape=tableRow;horizontal=0;startSize=0;swimlaneHead=0;swimlaneBody=0;strokeColor=inherit;top=0;left=0;bottom=0;right=0;collapsible=0;dropTarget=0;fillColor=none;points=[[0,0.5],[1,0.5]];portConstraint=eastwest;" vertex="1" parent="KgunOmB92rTkKpUrxYC2-94">
          <mxGeometry y="80" width="750" height="40" as="geometry" />
        </mxCell>
        <mxCell id="KgunOmB92rTkKpUrxYC2-110" value="Strom" style="shape=partialRectangle;html=1;whiteSpace=wrap;connectable=0;strokeColor=inherit;overflow=hidden;fillColor=none;top=0;left=0;bottom=0;right=0;pointerEvents=1;" vertex="1" parent="KgunOmB92rTkKpUrxYC2-109">
          <mxGeometry width="60" height="40" as="geometry">
            <mxRectangle width="60" height="40" as="alternateBounds" />
          </mxGeometry>
        </mxCell>
        <mxCell id="KgunOmB92rTkKpUrxYC2-111" value="Energiemenge" style="shape=partialRectangle;html=1;whiteSpace=wrap;connectable=0;strokeColor=inherit;overflow=hidden;fillColor=none;top=0;left=0;bottom=0;right=0;pointerEvents=1;" vertex="1" parent="KgunOmB92rTkKpUrxYC2-109">
          <mxGeometry x="60" width="200" height="40" as="geometry">
            <mxRectangle width="200" height="40" as="alternateBounds" />
          </mxGeometry>
        </mxCell>
        <mxCell id="KgunOmB92rTkKpUrxYC2-112" style="shape=partialRectangle;html=1;whiteSpace=wrap;connectable=0;strokeColor=inherit;overflow=hidden;fillColor=none;top=0;left=0;bottom=0;right=0;pointerEvents=1;" vertex="1" parent="KgunOmB92rTkKpUrxYC2-109">
          <mxGeometry x="260" width="98" height="40" as="geometry">
            <mxRectangle width="98" height="40" as="alternateBounds" />
          </mxGeometry>
        </mxCell>
        <mxCell id="KgunOmB92rTkKpUrxYC2-113" style="shape=partialRectangle;html=1;whiteSpace=wrap;connectable=0;strokeColor=inherit;overflow=hidden;fillColor=none;top=0;left=0;bottom=0;right=0;pointerEvents=1;" vertex="1" parent="KgunOmB92rTkKpUrxYC2-109">
          <mxGeometry x="358" width="98" height="40" as="geometry">
            <mxRectangle width="98" height="40" as="alternateBounds" />
          </mxGeometry>
        </mxCell>
        <mxCell id="KgunOmB92rTkKpUrxYC2-114" style="shape=partialRectangle;html=1;whiteSpace=wrap;connectable=0;strokeColor=inherit;overflow=hidden;fillColor=none;top=0;left=0;bottom=0;right=0;pointerEvents=1;" vertex="1" parent="KgunOmB92rTkKpUrxYC2-109">
          <mxGeometry x="456" width="98" height="40" as="geometry">
            <mxRectangle width="98" height="40" as="alternateBounds" />
          </mxGeometry>
        </mxCell>
        <mxCell id="KgunOmB92rTkKpUrxYC2-115" style="shape=partialRectangle;html=1;whiteSpace=wrap;connectable=0;strokeColor=inherit;overflow=hidden;fillColor=none;top=0;left=0;bottom=0;right=0;pointerEvents=1;" vertex="1" parent="KgunOmB92rTkKpUrxYC2-109">
          <mxGeometry x="554" width="98" height="40" as="geometry">
            <mxRectangle width="98" height="40" as="alternateBounds" />
          </mxGeometry>
        </mxCell>
        <mxCell id="KgunOmB92rTkKpUrxYC2-118" style="shape=partialRectangle;html=1;whiteSpace=wrap;connectable=0;strokeColor=inherit;overflow=hidden;fillColor=none;top=0;left=0;bottom=0;right=0;pointerEvents=1;" vertex="1" parent="KgunOmB92rTkKpUrxYC2-109">
          <mxGeometry x="652" width="98" height="40" as="geometry">
            <mxRectangle width="98" height="40" as="alternateBounds" />
          </mxGeometry>
        </mxCell>
        <mxCell id="KgunOmB92rTkKpUrxYC2-135" style="shape=tableRow;horizontal=0;startSize=0;swimlaneHead=0;swimlaneBody=0;strokeColor=inherit;top=0;left=0;bottom=0;right=0;collapsible=0;dropTarget=0;fillColor=none;points=[[0,0.5],[1,0.5]];portConstraint=eastwest;" vertex="1" parent="KgunOmB92rTkKpUrxYC2-94">
          <mxGeometry y="120" width="750" height="40" as="geometry" />
        </mxCell>
        <mxCell id="KgunOmB92rTkKpUrxYC2-136" value="Strom" style="shape=partialRectangle;html=1;whiteSpace=wrap;connectable=0;strokeColor=inherit;overflow=hidden;fillColor=none;top=0;left=0;bottom=0;right=0;pointerEvents=1;" vertex="1" parent="KgunOmB92rTkKpUrxYC2-135">
          <mxGeometry width="60" height="40" as="geometry">
            <mxRectangle width="60" height="40" as="alternateBounds" />
          </mxGeometry>
        </mxCell>
        <mxCell id="KgunOmB92rTkKpUrxYC2-137" value="Energiemenge und Leistungsmaximum" style="shape=partialRectangle;html=1;whiteSpace=wrap;connectable=0;strokeColor=inherit;overflow=hidden;fillColor=none;top=0;left=0;bottom=0;right=0;pointerEvents=1;" vertex="1" parent="KgunOmB92rTkKpUrxYC2-135">
          <mxGeometry x="60" width="200" height="40" as="geometry">
            <mxRectangle width="200" height="40" as="alternateBounds" />
          </mxGeometry>
        </mxCell>
        <mxCell id="KgunOmB92rTkKpUrxYC2-138" style="shape=partialRectangle;html=1;whiteSpace=wrap;connectable=0;strokeColor=inherit;overflow=hidden;fillColor=none;top=0;left=0;bottom=0;right=0;pointerEvents=1;" vertex="1" parent="KgunOmB92rTkKpUrxYC2-135">
          <mxGeometry x="260" width="98" height="40" as="geometry">
            <mxRectangle width="98" height="40" as="alternateBounds" />
          </mxGeometry>
        </mxCell>
        <mxCell id="KgunOmB92rTkKpUrxYC2-139" style="shape=partialRectangle;html=1;whiteSpace=wrap;connectable=0;strokeColor=inherit;overflow=hidden;fillColor=none;top=0;left=0;bottom=0;right=0;pointerEvents=1;" vertex="1" parent="KgunOmB92rTkKpUrxYC2-135">
          <mxGeometry x="358" width="98" height="40" as="geometry">
            <mxRectangle width="98" height="40" as="alternateBounds" />
          </mxGeometry>
        </mxCell>
        <mxCell id="KgunOmB92rTkKpUrxYC2-140" style="shape=partialRectangle;html=1;whiteSpace=wrap;connectable=0;strokeColor=inherit;overflow=hidden;fillColor=none;top=0;left=0;bottom=0;right=0;pointerEvents=1;" vertex="1" parent="KgunOmB92rTkKpUrxYC2-135">
          <mxGeometry x="456" width="98" height="40" as="geometry">
            <mxRectangle width="98" height="40" as="alternateBounds" />
          </mxGeometry>
        </mxCell>
        <mxCell id="KgunOmB92rTkKpUrxYC2-141" style="shape=partialRectangle;html=1;whiteSpace=wrap;connectable=0;strokeColor=inherit;overflow=hidden;fillColor=none;top=0;left=0;bottom=0;right=0;pointerEvents=1;" vertex="1" parent="KgunOmB92rTkKpUrxYC2-135">
          <mxGeometry x="554" width="98" height="40" as="geometry">
            <mxRectangle width="98" height="40" as="alternateBounds" />
          </mxGeometry>
        </mxCell>
        <mxCell id="KgunOmB92rTkKpUrxYC2-142" style="shape=partialRectangle;html=1;whiteSpace=wrap;connectable=0;strokeColor=inherit;overflow=hidden;fillColor=none;top=0;left=0;bottom=0;right=0;pointerEvents=1;" vertex="1" parent="KgunOmB92rTkKpUrxYC2-135">
          <mxGeometry x="652" width="98" height="40" as="geometry">
            <mxRectangle width="98" height="40" as="alternateBounds" />
          </mxGeometry>
        </mxCell>
        <mxCell id="KgunOmB92rTkKpUrxYC2-143" style="shape=tableRow;horizontal=0;startSize=0;swimlaneHead=0;swimlaneBody=0;strokeColor=inherit;top=0;left=0;bottom=0;right=0;collapsible=0;dropTarget=0;fillColor=none;points=[[0,0.5],[1,0.5]];portConstraint=eastwest;" vertex="1" parent="KgunOmB92rTkKpUrxYC2-94">
          <mxGeometry y="160" width="750" height="40" as="geometry" />
        </mxCell>
        <mxCell id="KgunOmB92rTkKpUrxYC2-144" value="Strom" style="shape=partialRectangle;html=1;whiteSpace=wrap;connectable=0;strokeColor=inherit;overflow=hidden;fillColor=none;top=0;left=0;bottom=0;right=0;pointerEvents=1;" vertex="1" parent="KgunOmB92rTkKpUrxYC2-143">
          <mxGeometry width="60" height="40" as="geometry">
            <mxRectangle width="60" height="40" as="alternateBounds" />
          </mxGeometry>
        </mxCell>
        <mxCell id="KgunOmB92rTkKpUrxYC2-145" value="Energiemenge und Leistungsmaximum Vorjahr" style="shape=partialRectangle;html=1;whiteSpace=wrap;connectable=0;strokeColor=inherit;overflow=hidden;fillColor=none;top=0;left=0;bottom=0;right=0;pointerEvents=1;" vertex="1" parent="KgunOmB92rTkKpUrxYC2-143">
          <mxGeometry x="60" width="200" height="40" as="geometry">
            <mxRectangle width="200" height="40" as="alternateBounds" />
          </mxGeometry>
        </mxCell>
        <mxCell id="KgunOmB92rTkKpUrxYC2-146" style="shape=partialRectangle;html=1;whiteSpace=wrap;connectable=0;strokeColor=inherit;overflow=hidden;fillColor=none;top=0;left=0;bottom=0;right=0;pointerEvents=1;" vertex="1" parent="KgunOmB92rTkKpUrxYC2-143">
          <mxGeometry x="260" width="98" height="40" as="geometry">
            <mxRectangle width="98" height="40" as="alternateBounds" />
          </mxGeometry>
        </mxCell>
        <mxCell id="KgunOmB92rTkKpUrxYC2-147" style="shape=partialRectangle;html=1;whiteSpace=wrap;connectable=0;strokeColor=inherit;overflow=hidden;fillColor=none;top=0;left=0;bottom=0;right=0;pointerEvents=1;" vertex="1" parent="KgunOmB92rTkKpUrxYC2-143">
          <mxGeometry x="358" width="98" height="40" as="geometry">
            <mxRectangle width="98" height="40" as="alternateBounds" />
          </mxGeometry>
        </mxCell>
        <mxCell id="KgunOmB92rTkKpUrxYC2-148" style="shape=partialRectangle;html=1;whiteSpace=wrap;connectable=0;strokeColor=inherit;overflow=hidden;fillColor=none;top=0;left=0;bottom=0;right=0;pointerEvents=1;" vertex="1" parent="KgunOmB92rTkKpUrxYC2-143">
          <mxGeometry x="456" width="98" height="40" as="geometry">
            <mxRectangle width="98" height="40" as="alternateBounds" />
          </mxGeometry>
        </mxCell>
        <mxCell id="KgunOmB92rTkKpUrxYC2-149" style="shape=partialRectangle;html=1;whiteSpace=wrap;connectable=0;strokeColor=inherit;overflow=hidden;fillColor=none;top=0;left=0;bottom=0;right=0;pointerEvents=1;" vertex="1" parent="KgunOmB92rTkKpUrxYC2-143">
          <mxGeometry x="554" width="98" height="40" as="geometry">
            <mxRectangle width="98" height="40" as="alternateBounds" />
          </mxGeometry>
        </mxCell>
        <mxCell id="KgunOmB92rTkKpUrxYC2-150" style="shape=partialRectangle;html=1;whiteSpace=wrap;connectable=0;strokeColor=inherit;overflow=hidden;fillColor=none;top=0;left=0;bottom=0;right=0;pointerEvents=1;" vertex="1" parent="KgunOmB92rTkKpUrxYC2-143">
          <mxGeometry x="652" width="98" height="40" as="geometry">
            <mxRectangle width="98" height="40" as="alternateBounds" />
          </mxGeometry>
        </mxCell>
        <mxCell id="KgunOmB92rTkKpUrxYC2-159" style="shape=tableRow;horizontal=0;startSize=0;swimlaneHead=0;swimlaneBody=0;strokeColor=inherit;top=0;left=0;bottom=0;right=0;collapsible=0;dropTarget=0;fillColor=none;points=[[0,0.5],[1,0.5]];portConstraint=eastwest;" vertex="1" parent="KgunOmB92rTkKpUrxYC2-94">
          <mxGeometry y="200" width="750" height="40" as="geometry" />
        </mxCell>
        <mxCell id="KgunOmB92rTkKpUrxYC2-160" value="Strom" style="shape=partialRectangle;html=1;whiteSpace=wrap;connectable=0;strokeColor=inherit;overflow=hidden;fillColor=none;top=0;left=0;bottom=0;right=0;pointerEvents=1;" vertex="1" parent="KgunOmB92rTkKpUrxYC2-159">
          <mxGeometry width="60" height="40" as="geometry">
            <mxRectangle width="60" height="40" as="alternateBounds" />
          </mxGeometry>
        </mxCell>
        <mxCell id="KgunOmB92rTkKpUrxYC2-161" value="Lieferschein Grund-/Arbeitspreis" style="shape=partialRectangle;html=1;whiteSpace=wrap;connectable=0;strokeColor=inherit;overflow=hidden;fillColor=none;top=0;left=0;bottom=0;right=0;pointerEvents=1;" vertex="1" parent="KgunOmB92rTkKpUrxYC2-159">
          <mxGeometry x="60" width="200" height="40" as="geometry">
            <mxRectangle width="200" height="40" as="alternateBounds" />
          </mxGeometry>
        </mxCell>
        <mxCell id="KgunOmB92rTkKpUrxYC2-162" style="shape=partialRectangle;html=1;whiteSpace=wrap;connectable=0;strokeColor=inherit;overflow=hidden;fillColor=none;top=0;left=0;bottom=0;right=0;pointerEvents=1;" vertex="1" parent="KgunOmB92rTkKpUrxYC2-159">
          <mxGeometry x="260" width="98" height="40" as="geometry">
            <mxRectangle width="98" height="40" as="alternateBounds" />
          </mxGeometry>
        </mxCell>
        <mxCell id="KgunOmB92rTkKpUrxYC2-163" style="shape=partialRectangle;html=1;whiteSpace=wrap;connectable=0;strokeColor=inherit;overflow=hidden;fillColor=none;top=0;left=0;bottom=0;right=0;pointerEvents=1;" vertex="1" parent="KgunOmB92rTkKpUrxYC2-159">
          <mxGeometry x="358" width="98" height="40" as="geometry">
            <mxRectangle width="98" height="40" as="alternateBounds" />
          </mxGeometry>
        </mxCell>
        <mxCell id="KgunOmB92rTkKpUrxYC2-164" style="shape=partialRectangle;html=1;whiteSpace=wrap;connectable=0;strokeColor=inherit;overflow=hidden;fillColor=none;top=0;left=0;bottom=0;right=0;pointerEvents=1;" vertex="1" parent="KgunOmB92rTkKpUrxYC2-159">
          <mxGeometry x="456" width="98" height="40" as="geometry">
            <mxRectangle width="98" height="40" as="alternateBounds" />
          </mxGeometry>
        </mxCell>
        <mxCell id="KgunOmB92rTkKpUrxYC2-165" style="shape=partialRectangle;html=1;whiteSpace=wrap;connectable=0;strokeColor=inherit;overflow=hidden;fillColor=none;top=0;left=0;bottom=0;right=0;pointerEvents=1;" vertex="1" parent="KgunOmB92rTkKpUrxYC2-159">
          <mxGeometry x="554" width="98" height="40" as="geometry">
            <mxRectangle width="98" height="40" as="alternateBounds" />
          </mxGeometry>
        </mxCell>
        <mxCell id="KgunOmB92rTkKpUrxYC2-166" style="shape=partialRectangle;html=1;whiteSpace=wrap;connectable=0;strokeColor=inherit;overflow=hidden;fillColor=none;top=0;left=0;bottom=0;right=0;pointerEvents=1;" vertex="1" parent="KgunOmB92rTkKpUrxYC2-159">
          <mxGeometry x="652" width="98" height="40" as="geometry">
            <mxRectangle width="98" height="40" as="alternateBounds" />
          </mxGeometry>
        </mxCell>
        <mxCell id="KgunOmB92rTkKpUrxYC2-151" style="shape=tableRow;horizontal=0;startSize=0;swimlaneHead=0;swimlaneBody=0;strokeColor=inherit;top=0;left=0;bottom=0;right=0;collapsible=0;dropTarget=0;fillColor=none;points=[[0,0.5],[1,0.5]];portConstraint=eastwest;" vertex="1" parent="KgunOmB92rTkKpUrxYC2-94">
          <mxGeometry y="240" width="750" height="40" as="geometry" />
        </mxCell>
        <mxCell id="KgunOmB92rTkKpUrxYC2-152" value="Strom" style="shape=partialRectangle;html=1;whiteSpace=wrap;connectable=0;strokeColor=inherit;overflow=hidden;fillColor=none;top=0;left=0;bottom=0;right=0;pointerEvents=1;" vertex="1" parent="KgunOmB92rTkKpUrxYC2-151">
          <mxGeometry width="60" height="40" as="geometry">
            <mxRectangle width="60" height="40" as="alternateBounds" />
          </mxGeometry>
        </mxCell>
        <mxCell id="KgunOmB92rTkKpUrxYC2-153" value="Lieferschein Arbeits-/Leistungspreis" style="shape=partialRectangle;html=1;whiteSpace=wrap;connectable=0;strokeColor=inherit;overflow=hidden;fillColor=none;top=0;left=0;bottom=0;right=0;pointerEvents=1;" vertex="1" parent="KgunOmB92rTkKpUrxYC2-151">
          <mxGeometry x="60" width="200" height="40" as="geometry">
            <mxRectangle width="200" height="40" as="alternateBounds" />
          </mxGeometry>
        </mxCell>
        <mxCell id="KgunOmB92rTkKpUrxYC2-154" style="shape=partialRectangle;html=1;whiteSpace=wrap;connectable=0;strokeColor=inherit;overflow=hidden;fillColor=none;top=0;left=0;bottom=0;right=0;pointerEvents=1;" vertex="1" parent="KgunOmB92rTkKpUrxYC2-151">
          <mxGeometry x="260" width="98" height="40" as="geometry">
            <mxRectangle width="98" height="40" as="alternateBounds" />
          </mxGeometry>
        </mxCell>
        <mxCell id="KgunOmB92rTkKpUrxYC2-155" style="shape=partialRectangle;html=1;whiteSpace=wrap;connectable=0;strokeColor=inherit;overflow=hidden;fillColor=none;top=0;left=0;bottom=0;right=0;pointerEvents=1;" vertex="1" parent="KgunOmB92rTkKpUrxYC2-151">
          <mxGeometry x="358" width="98" height="40" as="geometry">
            <mxRectangle width="98" height="40" as="alternateBounds" />
          </mxGeometry>
        </mxCell>
        <mxCell id="KgunOmB92rTkKpUrxYC2-156" style="shape=partialRectangle;html=1;whiteSpace=wrap;connectable=0;strokeColor=inherit;overflow=hidden;fillColor=none;top=0;left=0;bottom=0;right=0;pointerEvents=1;" vertex="1" parent="KgunOmB92rTkKpUrxYC2-151">
          <mxGeometry x="456" width="98" height="40" as="geometry">
            <mxRectangle width="98" height="40" as="alternateBounds" />
          </mxGeometry>
        </mxCell>
        <mxCell id="KgunOmB92rTkKpUrxYC2-157" style="shape=partialRectangle;html=1;whiteSpace=wrap;connectable=0;strokeColor=inherit;overflow=hidden;fillColor=none;top=0;left=0;bottom=0;right=0;pointerEvents=1;" vertex="1" parent="KgunOmB92rTkKpUrxYC2-151">
          <mxGeometry x="554" width="98" height="40" as="geometry">
            <mxRectangle width="98" height="40" as="alternateBounds" />
          </mxGeometry>
        </mxCell>
        <mxCell id="KgunOmB92rTkKpUrxYC2-158" style="shape=partialRectangle;html=1;whiteSpace=wrap;connectable=0;strokeColor=inherit;overflow=hidden;fillColor=none;top=0;left=0;bottom=0;right=0;pointerEvents=1;" vertex="1" parent="KgunOmB92rTkKpUrxYC2-151">
          <mxGeometry x="652" width="98" height="40" as="geometry">
            <mxRectangle width="98" height="40" as="alternateBounds" />
          </mxGeometry>
        </mxCell>
        <mxCell id="KgunOmB92rTkKpUrxYC2-167" style="shape=tableRow;horizontal=0;startSize=0;swimlaneHead=0;swimlaneBody=0;strokeColor=inherit;top=0;left=0;bottom=0;right=0;collapsible=0;dropTarget=0;fillColor=none;points=[[0,0.5],[1,0.5]];portConstraint=eastwest;" vertex="1" parent="1">
          <mxGeometry x="-60" y="1600" width="750" height="40" as="geometry" />
        </mxCell>
        <mxCell id="KgunOmB92rTkKpUrxYC2-168" value="Strom" style="shape=partialRectangle;html=1;whiteSpace=wrap;connectable=0;strokeColor=inherit;overflow=hidden;fillColor=none;top=0;left=0;bottom=0;right=0;pointerEvents=1;" vertex="1" parent="KgunOmB92rTkKpUrxYC2-167">
          <mxGeometry width="60" height="40" as="geometry">
            <mxRectangle width="60" height="40" as="alternateBounds" />
          </mxGeometry>
        </mxCell>
        <mxCell id="KgunOmB92rTkKpUrxYC2-169" value="Energiemenge und Leistungsmaximum" style="shape=partialRectangle;html=1;whiteSpace=wrap;connectable=0;strokeColor=inherit;overflow=hidden;fillColor=none;top=0;left=0;bottom=0;right=0;pointerEvents=1;" vertex="1" parent="KgunOmB92rTkKpUrxYC2-167">
          <mxGeometry x="60" width="200" height="40" as="geometry">
            <mxRectangle width="200" height="40" as="alternateBounds" />
          </mxGeometry>
        </mxCell>
        <mxCell id="KgunOmB92rTkKpUrxYC2-170" style="shape=partialRectangle;html=1;whiteSpace=wrap;connectable=0;strokeColor=inherit;overflow=hidden;fillColor=none;top=0;left=0;bottom=0;right=0;pointerEvents=1;" vertex="1" parent="KgunOmB92rTkKpUrxYC2-167">
          <mxGeometry x="260" width="98" height="40" as="geometry">
            <mxRectangle width="98" height="40" as="alternateBounds" />
          </mxGeometry>
        </mxCell>
        <mxCell id="KgunOmB92rTkKpUrxYC2-171" style="shape=partialRectangle;html=1;whiteSpace=wrap;connectable=0;strokeColor=inherit;overflow=hidden;fillColor=none;top=0;left=0;bottom=0;right=0;pointerEvents=1;" vertex="1" parent="KgunOmB92rTkKpUrxYC2-167">
          <mxGeometry x="358" width="98" height="40" as="geometry">
            <mxRectangle width="98" height="40" as="alternateBounds" />
          </mxGeometry>
        </mxCell>
        <mxCell id="KgunOmB92rTkKpUrxYC2-172" style="shape=partialRectangle;html=1;whiteSpace=wrap;connectable=0;strokeColor=inherit;overflow=hidden;fillColor=none;top=0;left=0;bottom=0;right=0;pointerEvents=1;" vertex="1" parent="KgunOmB92rTkKpUrxYC2-167">
          <mxGeometry x="456" width="98" height="40" as="geometry">
            <mxRectangle width="98" height="40" as="alternateBounds" />
          </mxGeometry>
        </mxCell>
        <mxCell id="KgunOmB92rTkKpUrxYC2-173" style="shape=partialRectangle;html=1;whiteSpace=wrap;connectable=0;strokeColor=inherit;overflow=hidden;fillColor=none;top=0;left=0;bottom=0;right=0;pointerEvents=1;" vertex="1" parent="KgunOmB92rTkKpUrxYC2-167">
          <mxGeometry x="554" width="98" height="40" as="geometry">
            <mxRectangle width="98" height="40" as="alternateBounds" />
          </mxGeometry>
        </mxCell>
        <mxCell id="KgunOmB92rTkKpUrxYC2-174" style="shape=partialRectangle;html=1;whiteSpace=wrap;connectable=0;strokeColor=inherit;overflow=hidden;fillColor=none;top=0;left=0;bottom=0;right=0;pointerEvents=1;" vertex="1" parent="KgunOmB92rTkKpUrxYC2-167">
          <mxGeometry x="652" width="98" height="40" as="geometry">
            <mxRectangle width="98" height="40" as="alternateBounds" />
          </mxGeometry>
        </mxCell>
      </root>
    </mxGraphModel>
  </diagram>
</mxfile>
